<?xml version="1.0" encoding="UTF-8"?>
<svg id="_Шар_1" data-name="Шар 1" xmlns="http://www.w3.org/2000/svg" viewBox="0 0 498.74 512">
  <defs>
    <style>
      .cls-1 {
        fill: #04201c;
      }

      .cls-1, .cls-2 {
        stroke-width: 0px;
      }

      .cls-2 {
        fill: #cce8e2;
      }
    </style>
  </defs>
  <path class="cls-2" d="M498.01,170.51c.25.11.48.13.73.32-13.44-47.05-41.95-86.62-83.49-115.21-19.18-13.18-41.35-20.74-60.79-20.74-11.18,0-21.43,2.38-30.36,7.23-22.66,13.24-34.26,32.02-34.26,55.89,0,38.96,22.6,61.91,56.76,96.71,17.78,18.11,37.71,38.44,57.26,64.55,32.07,42.74,40,102.57,20.69,156.29-8.44,23.43-21.31,44.06-37.97,61.25-.22.05-.28.38-.48.56,40.69-22.92,71.4-55.46,90.33-95.99,37.89-81.37,9.76-137.81-7.03-171.55-8.61-17.32-14.8-29.96-8.52-39.44,7.25-10.94,20.65-11.46,37.15.15Z"/>
  <path class="cls-1" d="M312.92,363.5c-24.09-37.35-58.28-50.52-94.44-64.39-35.48-13.73-72.2-27.84-103.4-64.46-30.57-35.63-43.43-81.85-36.51-129.83,2.16-14.76,6.36-28.81,11.86-41.76.15-.47.3-.93.49-1.3-3.63,2.77-7.18,5.66-10.66,8.56C29.52,118.19,0,184.66,0,255.96c0,112.42,75.21,213.31,182.94,245.34,10.41,2.72,21.09,4.09,31.74,4.09,36.34,0,68.82-15.97,89.31-43.92,10.24-14.06,16.01-29.99,18.32-45.85,2.72-18.87.04-37.46-9.39-52.12Z"/>
  <path class="cls-2" d="M384.48,273.65c-18.62-24.8-38.03-44.65-55.14-62.04-35.6-36.32-63.62-64.85-63.62-113.62s36.34-77.02,70.46-85.21c-1.72-.57-3.66-.84-5.43-1.32-23.81-7.18-49.67-11.47-74.79-11.47-41.73,0-74.64,8.58-106.78,27.87-23.27,13.99-41.56,45.56-46.67,80.47-3.48,23.75-4.07,69.71,30.9,110.58,27.32,32.01,61.07,45.05,93.69,57.6,38.27,14.73,77.7,30.01,106.07,73.86,19.27,29.77,19.15,71.56,1.27,107.22-1.15,2.38-2.45,4.68-3.8,6.95-.36.68-.76,1.35-1.14,2.02-14.09,22.37-37.33,39.72-60.5,45.43,12.4-1.76,24.42-4.47,36.04-8.41,1.14-.33,2.29-.66,3.44-1,1.49-.53,2.87-1.29,4.32-1.87,2.67-1.06,5.33-2.18,7.95-3.38,1.65-.75,3.32-1.52,5.01-2.38,4.04-2.02,8-4.32,11.89-6.72.57-.37,1.09-.74,1.61-1.07,4.31-2.75,8.46-5.84,12.56-9.12.33-.28.67-.55,1-.81,3.75-3.11,7.43-6.45,11.04-10.03.9-.96,1.82-1.96,2.75-2.92,2.44-2.58,4.82-5.26,7.14-8.11,1.86-2.18,3.56-4.45,5.28-6.72,1.8-2.44,3.59-4.96,5.33-7.54.83-1.26,1.68-2.46,2.47-3.74.24-.34.47-.71.73-1.09l-.04-.13c5.63-9.3,10.49-19.13,14.24-29.62,16.6-46.07,9.94-97.3-17.31-133.67Z"/>
</svg>